Coordinates
version=1
nRows=14
nColumns=42
inDegrees=yes

Units are S.I. units (second, meters, Newtons, ...)
If the header above contains a line with 'inDegrees', this indicates whether rotational values are in degrees (yes) or radians (no).

endheader
time	pelvis_tilt	pelvis_list	pelvis_rotation	pelvis_tx	pelvis_ty	pelvis_tz	hip_flexion_r	hip_adduction_r	hip_rotation_r	knee_angle_r	knee_adduction_r	knee_angle_r_beta	ankle_angle_r	subtalar_angle_r	mtp_angle_r	hip_flexion_l	hip_adduction_l	hip_rotation_l	knee_angle_l	knee_adduction_l	knee_angle_l_beta	ankle_angle_l	subtalar_angle_l	mtp_angle_l	lumbar_extension	lumbar_bending	lumbar_rotation	arm_flex_r	arm_add_r	arm_rot_r	elbow_flex_r	pro_sup_r	wrist_flex_r	wrist_dev_r	arm_flex_l	arm_add_l	arm_rot_l	elbow_flex_l	pro_sup_l	wrist_flex_l	wrist_dev_l
     13.42000000	    -10.92843795	      4.57478810	     -4.95312366	      0.76391346	      0.95572558	      0.46034477	     34.80284576	     -5.41610878	      3.39145509	     72.62688690	      0.00000000	      1.26757830	     -5.21937798	    -16.23823338	      0.02743615	     20.73374554	      3.62194475	    -15.77245283	     20.49382679	      0.00000000	      0.35768475	      9.35667673	      2.56708710	      0.02743615	      0.00000000	      0.00000000	      0.00000000	      0.00000000	     -8.66985520	      0.00000000	     74.77818762	     90.00000001	      0.00000000	      0.00000000	      0.00000000	     -8.66985520	      0.00000000	     74.77818762	     90.00000001	      0.00000000	      0.00000000
     13.42500000	    -10.99909689	      4.45344046	     -4.91423202	      0.76365432	      0.95631907	      0.46032202	     35.44252290	     -5.19588996	      3.28134603	     72.14936098	      0.00000000	      1.25924390	     -4.57711768	    -16.07084052	      0.02714721	     20.24965156	      3.56132464	    -15.72305281	     20.18207642	      0.00000000	      0.35224368	      9.51577418	      2.82160763	      0.02714721	      0.00000000	      0.00000000	      0.00000000	      0.00000000	     -8.67543268	      0.00000000	     74.77856833	     90.00000001	      0.00000000	      0.00000000	      0.00000000	     -8.67543268	      0.00000000	     74.77856833	     90.00000001	      0.00000000	      0.00000000
     13.43000000	    -11.02061973	      4.23378115	     -4.84183554	      0.76367872	      0.95713974	      0.46025040	     35.92186844	     -4.92651975	      3.06687597	     71.52099379	      0.00000000	      1.24827683	     -3.85429571	    -15.55651522	      0.02680318	     19.67596214	      3.42383958	    -15.62678821	     19.84930148	      0.00000000	      0.34643567	      9.66758760	      3.13977803	      0.02680318	      0.00000000	      0.00000000	      0.00000000	      0.00000000	     -8.68210419	      0.00000000	     74.77902375	     90.00000001	      0.00000000	      0.00000000	      0.00000000	     -8.68210419	      0.00000000	     74.77902375	     90.00000001	      0.00000000	      0.00000000
     13.43500000	    -10.90469253	      4.07367626	     -4.75687997	      0.76338433	      0.95786418	      0.46009097	     36.29332024	     -4.79438331	      2.81995169	     70.90067053	      0.00000000	      1.23745014	     -2.96672417	    -14.75558206	      0.02595577	     19.05476236	      3.32756668	    -15.71594377	     19.68635592	      0.00000000	      0.34359173	      9.95667201	      3.59839360	      0.02595577	      0.00000000	      0.00000000	      0.00000000	      0.00000000	     -8.69882224	      0.00000000	     74.78016393	     90.00000001	      0.00000000	      0.00000000	      0.00000000	     -8.69882224	      0.00000000	     74.78016393	     90.00000001	      0.00000000	      0.00000000
     13.44000000	    -10.89825921	      3.89429555	     -4.68918198	      0.76328108	      0.95859628	      0.45993790	     36.70253683	     -4.60372370	      2.55924682	     70.12305933	      0.00000000	      1.22387827	     -2.33225994	    -14.19147266	      0.02520896	     18.49429596	      3.20601238	    -15.77695991	     19.41771822	      0.00000000	      0.33890312	     10.14213971	      4.05432550	      0.02520896	      0.00000000	      0.00000000	      0.00000000	      0.00000000	     -8.71397482	      0.00000000	     74.78119484	     90.00000001	      0.00000000	      0.00000000	      0.00000000	     -8.71397482	      0.00000000	     74.78119484	     90.00000001	      0.00000000	      0.00000000
     13.44500000	    -10.96602614	      3.78992634	     -4.67214853	      0.76335623	      0.95925739	      0.45981036	     37.17723488	     -4.47008368	      2.36154786	     69.26015240	      0.00000000	      1.20881770	     -1.81162433	    -13.73236942	      0.02480151	     17.95132669	      3.16596396	    -15.83084703	     19.01157692	      0.00000000	      0.33181461	     10.23623794	      4.40558502	      0.02480151	      0.00000000	      0.00000000	      0.00000000	      0.00000000	     -8.72245797	      0.00000000	     74.78177047	     90.00000001	      0.00000000	      0.00000000	      0.00000000	     -8.72245797	      0.00000000	     74.78177047	     90.00000001	      0.00000000	      0.00000000
     13.45000000	    -10.97465562	      3.67576463	     -4.59458576	      0.76375609	      0.96005911	      0.45959509	     37.51194733	     -4.38252538	      2.06746400	     68.28722932	      0.00000000	      1.19183699	     -1.29132143	    -13.30550361	      0.02452806	     17.31185371	      3.14250005	    -15.87092647	     18.58111969	      0.00000000	      0.32430172	     10.30551426	      4.82587822	      0.02452806	      0.00000000	      0.00000000	      0.00000000	      0.00000000	     -8.72823525	      0.00000000	     74.78216191	     90.00000001	      0.00000000	      0.00000000	      0.00000000	     -8.72823525	      0.00000000	     74.78216191	     90.00000001	      0.00000000	      0.00000000
     13.45500000	    -10.93084099	      3.83407574	     -4.44799827	      0.76329026	      0.96059060	      0.45936240	     37.94279223	     -4.57946846	      1.91092861	     67.41073585	      0.00000000	      1.17653929	     -1.02915535	    -13.14402348	      0.02442270	     16.85417808	      3.38581411	    -16.03371069	     18.49739954	      0.00000000	      0.32284052	     10.45408824	      4.90022420	      0.02442270	      0.00000000	      0.00000000	      0.00000000	      0.00000000	     -8.73054357	      0.00000000	     74.78231740	     90.00000001	      0.00000000	      0.00000000	      0.00000000	     -8.73054357	      0.00000000	     74.78231740	     90.00000001	      0.00000000	      0.00000000
     13.46000000	    -10.92743064	      3.46997114	     -4.34983477	      0.76363417	      0.96160824	      0.45922163	     38.06430306	     -4.26636795	      1.45196406	     66.10789677	      0.00000000	      1.15380046	     -0.56684170	    -12.42138433	      0.02398290	     16.08421799	      3.11697975	    -15.85220191	     17.82594315	      0.00000000	      0.31112140	     10.39685371	      5.63500847	      0.02398290	      0.00000000	      0.00000000	      0.00000000	      0.00000000	     -8.73995499	      0.00000000	     74.78295461	     90.00000001	      0.00000000	      0.00000000	      0.00000000	     -8.73995499	      0.00000000	     74.78295461	     90.00000001	      0.00000000	      0.00000000
     13.46500000	    -10.68870602	      3.23079633	     -4.24138953	      0.76355415	      0.96258392	      0.45913027	     38.02877785	     -4.10050318	      1.04895241	     64.87196093	      0.00000000	      1.13222931	     -0.19998365	    -11.89929585	      0.02358840	     15.26474719	      2.94274611	    -15.89288830	     17.52510930	      0.00000000	      0.30587086	     10.57569402	      6.08637199	      0.02358840	      0.00000000	      0.00000000	      0.00000000	      0.00000000	     -8.74853661	      0.00000000	     74.78353479	     90.00000001	      0.00000000	      0.00000000	      0.00000000	     -8.74853661	      0.00000000	     74.78353479	     90.00000001	      0.00000000	      0.00000000
     13.47000000	    -10.42641126	      3.04435768	     -4.11875243	      0.76348429	      0.96350957	      0.45915089	     37.95165096	     -3.98295527	      0.64635666	     63.61530107	      0.00000000	      1.11029646	      0.02523066	    -11.65190767	      0.02293618	     14.47384775	      2.79002058	    -16.04270470	     17.37134198	      0.00000000	      0.30318711	     10.78603698	      6.71952612	      0.02293618	      0.00000000	      0.00000000	      0.00000000	      0.00000000	     -8.76296831	      0.00000000	     74.78450947	     90.00000001	      0.00000000	      0.00000000	      0.00000000	     -8.76296831	      0.00000000	     74.78450947	     90.00000001	      0.00000000	      0.00000000
     13.47500000	    -10.46402905	      2.89022823	     -4.05583580	      0.76346141	      0.96401729	      0.45917337	     38.18050757	     -3.82601858	      0.34117930	     62.27051494	      0.00000000	      1.08682551	      0.22104644	    -11.32764673	      0.02244623	     13.96920233	      2.65689643	    -16.16462957	     17.09989702	      0.00000000	      0.29844950	     10.90736603	      7.19239771	      0.02244623	      0.00000000	      0.00000000	      0.00000000	      0.00000000	     -8.77408030	      0.00000000	     74.78525824	     90.00000001	      0.00000000	      0.00000000	      0.00000000	     -8.77408030	      0.00000000	     74.78525824	     90.00000001	      0.00000000	      0.00000000
     13.48000000	    -10.52949080	      2.80434718	     -3.97176292	      0.76343743	      0.96445890	      0.45919045	     38.41532119	     -3.74213112	      0.06239860	     60.87850433	      0.00000000	      1.06253034	      0.46352674	    -11.05482923	      0.02211589	     13.49383134	      2.60414774	    -16.20097112	     16.80567274	      0.00000000	      0.29331432	     10.96116089	      7.59957080	      0.02211589	      0.00000000	      0.00000000	      0.00000000	      0.00000000	     -8.78172229	      0.00000000	     74.78577215	     90.00000001	      0.00000000	      0.00000000	      0.00000000	     -8.78172229	      0.00000000	     74.78577215	     90.00000001	      0.00000000	      0.00000000
     13.48500000	    -10.75853351	      2.33569242	     -3.77009034	      0.76265347	      0.96453123	      0.45986406	     38.72694116	     -3.19020220	     -0.35865588	     59.28338541	      0.00000000	      1.03469027	      0.42353985	    -11.28309379	      0.02140778	     13.44690479	      2.00643637	    -16.20596234	     17.05123033	      0.00000000	      0.29760011	     11.38846007	      8.14310195	      0.02140778	      0.00000000	      0.00000000	      0.00000000	      0.00000000	     -8.79834148	      0.00000000	     74.78688912	     90.00000001	      0.00000000	      0.00000000	      0.00000000	     -8.79834148	      0.00000000	     74.78688912	     90.00000001	      0.00000000	      0.00000000
